# xmcd CD database file
#
# Track frame offsets:
#	150
#	15167
#	34115
#	53045
#	77590
#	90362
#	99240
#	117867
#	131625
#	151165
#	166250
#	180822
#
# Disc length: 2599 seconds
#
# Revision: 0
# Processed by: cddbd v1.5.2PL0 Copyright (c) Steve Scherf et al.
# Submitted via: CDex 1.70beta2
#
DISCID=730a250c
DTITLE=Elizabeth Lee and Martin Hauke - Blue Sky
DYEAR=2017
DGENRE=Blues
TTITLE0=Stupid Girl
TTITLE1=Anna Lee
TTITLE2=Changed the Locks
TTITLE3=93 Stories
TTITLE4=What I Gave Away
TTITLE5=Love Is a Rose
TTITLE6=Got My Heart Cryin'
TTITLE7=Happy
TTITLE8=I Will Rise
TTITLE9=Baby What You Want Me to Do
TTITLE10=The Needle and the Damage Done
TTITLE11=Blue Sky
EXTD=YEAR: 2017
EXTT0=
EXTT1=
EXTT2=
EXTT3=
EXTT4=
EXTT5=
EXTT6=
EXTT7=
EXTT8=
EXTT9=
EXTT10=
EXTT11=
PLAYORDER=
